<?xml version="1.0" encoding="utf-8"?>
<!-- Generator: Adobe Illustrator 22.1.0, SVG Export Plug-In . SVG Version: 6.00 Build 0)  -->
<svg version="1.1" id="Layer_1" xmlns="http://www.w3.org/2000/svg" xmlns:xlink="http://www.w3.org/1999/xlink" x="0px" y="0px"
	 viewBox="0 0 224.2 208.2" style="enable-background:new 0 0 224.2 208.2;" xml:space="preserve">
<style type="text/css">
	.st0{fill:#666766;}
</style>
<path class="st0" d="M120.1,120.1h48v11.3c0,2.6,2.1,4.7,4.7,4.7h6.7c2.6,0,4.7-2.1,4.7-4.7v-16.7c0-5.9-4.8-10.7-10.7-10.7h-53.4
	V92.7c0-2.6-2.1-4.7-4.7-4.7h-6.7c-2.6,0-4.7,2.1-4.7,4.7v11.3H50.7c-5.9,0-10.7,4.8-10.7,10.7v16.7c0,2.6,2.1,4.7,4.7,4.7h6.7
	c2.6,0,4.7-2.1,4.7-4.7v-11.3h48H120.1z M96.1,153.5c0-5.2-4.2-9.3-9.3-9.3H9.3c-5.2,0-9.3,4.2-9.3,9.3v45.4c0,5.2,4.2,9.3,9.3,9.3
	h77.4c5.2,0,9.3-4.2,9.3-9.3V153.5z M224.2,153.5c0-5.2-4.2-9.3-9.3-9.3h-77.4c-5.2,0-9.3,4.2-9.3,9.3v45.4c0,5.2,4.2,9.3,9.3,9.3
	h77.4c5.2,0,9.3-4.2,9.3-9.3V153.5z M168.2,9.3c0-5.2-4.2-9.3-9.3-9.3H65.4c-5.2,0-9.3,4.2-9.3,9.3v61.4c0,5.2,4.2,9.3,9.3,9.3h93.4
	c5.2,0,9.3-4.2,9.3-9.3V9.3z"/>
</svg>
