<svg width="18" height="21" viewBox="0 0 18 21" fill="none" xmlns="http://www.w3.org/2000/svg">
<path d="M11.1944 2.625H3.52778C2.81861 2.625 2.25 3.2625 2.25 4.04167V13.9583C2.25 14.7375 2.81861 15.375 3.52778 15.375H12.4722C13.175 15.375 13.75 14.7375 13.75 13.9583V5.45833L11.1944 2.625ZM8 13.9583C6.93944 13.9583 6.08333 13.0092 6.08333 11.8333C6.08333 10.6575 6.93944 9.70833 8 9.70833C9.06056 9.70833 9.91667 10.6575 9.91667 11.8333C9.91667 13.0092 9.06056 13.9583 8 13.9583ZM9.91667 6.875H3.52778V4.04167H9.91667V6.875Z" fill="white"/>
<path d="M6.12793 18.5796C6.12793 18.5063 6.1001 18.4497 6.04443 18.4097C5.98975 18.3687 5.89355 18.3335 5.75586 18.3042C5.61914 18.2749 5.51025 18.2397 5.4292 18.1987C5.34912 18.1577 5.28955 18.1089 5.25049 18.0522C5.2124 17.9956 5.19336 17.9282 5.19336 17.8501C5.19336 17.7202 5.24805 17.6104 5.35742 17.5205C5.46777 17.4307 5.6084 17.3857 5.7793 17.3857C5.95898 17.3857 6.10449 17.4321 6.21582 17.5249C6.32812 17.6177 6.38428 17.7363 6.38428 17.8809H6.11182C6.11182 17.8066 6.08008 17.7427 6.0166 17.689C5.9541 17.6353 5.875 17.6084 5.7793 17.6084C5.68066 17.6084 5.60352 17.6299 5.54785 17.6729C5.49219 17.7158 5.46436 17.772 5.46436 17.8413C5.46436 17.9067 5.49023 17.9561 5.54199 17.9893C5.59375 18.0225 5.68701 18.0542 5.82178 18.0845C5.95752 18.1147 6.06738 18.1509 6.15137 18.1929C6.23535 18.2349 6.29736 18.2856 6.3374 18.3452C6.37842 18.4038 6.39893 18.4756 6.39893 18.5605C6.39893 18.7021 6.34229 18.8159 6.229 18.9019C6.11572 18.9868 5.96875 19.0293 5.78809 19.0293C5.66113 19.0293 5.54883 19.0068 5.45117 18.9619C5.35352 18.917 5.27686 18.8545 5.22119 18.7744C5.1665 18.6934 5.13916 18.606 5.13916 18.5122H5.41016C5.41504 18.603 5.45117 18.6753 5.51855 18.729C5.58691 18.7817 5.67676 18.8081 5.78809 18.8081C5.89062 18.8081 5.97266 18.7876 6.03418 18.7466C6.09668 18.7046 6.12793 18.6489 6.12793 18.5796ZM7.73047 19C7.71484 18.9688 7.70215 18.9131 7.69238 18.833C7.56641 18.9639 7.41602 19.0293 7.24121 19.0293C7.08496 19.0293 6.95654 18.9854 6.85596 18.8975C6.75635 18.8086 6.70654 18.6963 6.70654 18.5605C6.70654 18.3955 6.76904 18.2676 6.89404 18.1768C7.02002 18.085 7.19678 18.0391 7.42432 18.0391H7.68799V17.9146C7.68799 17.8198 7.65967 17.7446 7.60303 17.689C7.54639 17.6323 7.46289 17.604 7.35254 17.604C7.25586 17.604 7.1748 17.6284 7.10938 17.6772C7.04395 17.7261 7.01123 17.7852 7.01123 17.8545H6.73877C6.73877 17.7754 6.7666 17.6992 6.82227 17.626C6.87891 17.5518 6.95508 17.4932 7.05078 17.4502C7.14746 17.4072 7.25342 17.3857 7.36865 17.3857C7.55127 17.3857 7.69434 17.4316 7.79785 17.5234C7.90137 17.6143 7.95508 17.7397 7.95898 17.8999V18.6294C7.95898 18.7749 7.97754 18.8906 8.01465 18.9766V19H7.73047ZM7.28076 18.7935C7.36572 18.7935 7.44629 18.7715 7.52246 18.7275C7.59863 18.6836 7.65381 18.6265 7.68799 18.5562V18.231H7.47559C7.14355 18.231 6.97754 18.3281 6.97754 18.5225C6.97754 18.6074 7.00586 18.6738 7.0625 18.7217C7.11914 18.7695 7.19189 18.7935 7.28076 18.7935ZM8.8833 18.6323L9.27588 17.415H9.55273L8.98438 19H8.77783L8.20361 17.415H8.48047L8.8833 18.6323ZM10.4507 19.0293C10.2358 19.0293 10.061 18.959 9.92627 18.8184C9.7915 18.6768 9.72412 18.4878 9.72412 18.2515V18.2017C9.72412 18.0444 9.75391 17.9043 9.81348 17.7812C9.87402 17.6572 9.95801 17.5605 10.0654 17.4912C10.1738 17.4209 10.291 17.3857 10.417 17.3857C10.623 17.3857 10.7832 17.4536 10.8975 17.5894C11.0117 17.7251 11.0688 17.9194 11.0688 18.1724V18.2852H9.99512C9.99902 18.4414 10.0444 18.5679 10.1313 18.6646C10.2192 18.7603 10.3306 18.8081 10.4653 18.8081C10.561 18.8081 10.6421 18.7886 10.7085 18.7495C10.7749 18.7104 10.833 18.6587 10.8828 18.5942L11.0483 18.7231C10.9155 18.9272 10.7163 19.0293 10.4507 19.0293ZM10.417 17.6084C10.3076 17.6084 10.2158 17.6484 10.1416 17.7285C10.0674 17.8076 10.0215 17.9189 10.0039 18.0625H10.7979V18.042C10.79 17.9043 10.7529 17.7979 10.6865 17.7227C10.6201 17.6465 10.5303 17.6084 10.417 17.6084Z" fill="white"/>
</svg>
